<svg  xmlns="http://www.w3.org/2000/svg" xmlns:xlink="http://www.w3.org/1999/xlink" 
	 viewBox="0 0 480 104" width="480" height="104" xml:space="preserve">
<style type="text/css">
	.st0{fill:#39A935;}
	.st1{fill:#3C3C3B;}
    #big{
    	display:block;
    }
	#small{
    	display:none;
    }
	
    @media screen and (max-width: 200px){
    	#small{
    		display:block;
    	}
    	#big{
    		display:none;
    	}
    }
</style>
<path id="symbol" class="st0" d="M60.8,3.2c0.4,0.2,0.6,0.5,0.9,0.7c2,1.7,3.5,3.9,4,6.8C61.9,9.5,57.8,9,53.6,9
	c-4.3,0-8.4,0.6-12.3,1.8c-0.1,0.6-0.2,1.2-0.2,1.8c0,0.4,0,0.8,0,1.2c0.8-0.3,1.6-0.5,2.4-0.7c-0.9,0.5-1.7,1-2.4,1.6
	c0,1.2,0.1,2.3,0.2,3.5c2.1-1.7,4.4-3.1,6.8-4.1c-1.7,1.9-3.2,4.3-4.5,7c-0.6-0.2-1.3-0.4-1.9-0.6c0.2,1.1,0.4,2.1,0.7,3.2
	c0.4,1.5,0.8,3.1,1.4,4.6c0.3-0.8,0.6-1.7,0.9-2.5c0.2-0.6,0.4-1.1,0.6-1.6c2.7,0.6,5.5,0.9,8.4,0.9c3.4,0,6.8-0.4,9.9-1.2
	c0.3,0.6,0.5,1.2,0.8,1.9c1.1,2.8,2,6,2.7,9.4c-4.2,0.7-8.7,1.1-13.4,1.1c-2.3,0-4.6-0.1-6.8-0.3c0.4,1,0.9,2,1.4,3
	c1.8,0.1,3.6,0.2,5.4,0.2c4.9,0,9.6-0.4,13.9-1.1c0.7,4.3,1.1,8.9,1.1,13.8c0,4.8-0.4,9.5-1.1,13.9c-1.8-0.3-3.6-0.5-5.4-0.7
	c0.5,1.1,0.9,2.1,1.3,3.1c1.2,0.2,2.4,0.4,3.6,0.6c-0.4,1.9-0.9,3.8-1.4,5.5c0.6,1.7,1,3.3,1.4,4.8c0-0.1,0.1-0.1,0.1-0.2
	c1.2-3,2.1-6.2,2.8-9.7c3,0.6,5.8,1.4,8.3,2.3c-1.9,4.2-4.3,8-7.2,11c-1.1-0.5-2.3-0.9-3.5-1.3c0.3,1.2,0.5,2.2,0.7,3.3
	c0.2,0.1,0.4,0.2,0.6,0.3c-0.2,0.1-0.3,0.3-0.5,0.4c0.1,0.3,0.2,0.7,0.2,1c0.1,0.7,0.2,1.5,0.3,2.3c1-0.8,1.9-1.6,2.8-2.4
	c0.6,0.3,1.1,0.6,1.7,0.9c-1.4,0.8-2.9,1.5-4.4,2.1c0.1,1,0.1,2.1,0,3.1c-0.1,0-0.1,0.1-0.2,0.1c-0.2,2.1-0.7,4.3-1.7,6.3
	c-0.4,0.8-0.9,1.5-1.4,2.1c6.5-0.2,13.4-0.4,18-1.2c10-1.6,14.7-7,16.5-17.4c1.4-7.9,1.5-20,1.5-30.2c0-10.3-0.9-23.8-1.5-30.2
	C98.9,11,94.3,5.8,83.4,4.4c-4.8-0.7-11.7-1-18.3-1.1c0.1,0,0.1,0.1,0.1,0.1C63.8,3.3,62.3,3.2,60.8,3.2L60.8,3.2z M41.5,3.3
	C35,3.5,28.3,3.8,23.6,4.4c-10.9,1.3-15.4,7-16.5,17.4c-0.9,8-1.5,19.4-1.5,30.2c0,10.7,0.2,22.4,1.5,30.2
	c1.7,10.4,6.6,15.8,16.5,17.4c4.7,0.8,11.8,1,18.3,1.2c-0.5-0.7-1-1.3-1.3-2c-1.4-2.6-2-5.2-2.1-6.5C22.2,86.1,10.7,70.4,10.7,52
	c0-18.3,11.4-34,27.5-40.2C38.4,8.2,39.7,5.4,41.5,3.3L41.5,3.3z M54.4,12.7c2.9,1.4,5.5,4.4,7.8,8.6c-2.8,0.6-5.7,1-8.7,1
	c-2.4,0-4.8-0.3-7.2-0.7C48.7,17.2,51.5,14.1,54.4,12.7L54.4,12.7z M60.7,14c2.8,1.3,5.5,3.1,8,5.2c-1.2,0.5-2.4,1-3.7,1.3
	C63.7,18.1,62.3,15.8,60.7,14L60.7,14z M66.8,14.1c2.2,0.8,4.4,1.8,6.4,3c-0.6,0.3-1.1,0.6-1.7,0.9C70.1,16.5,68.5,15.2,66.8,14.1
	L66.8,14.1z M38,15c-1.4,0.6-2.9,1.3-4.2,2.1c0.9,0.5,1.8,1,2.7,1.4c0.5-0.5,1.1-1,1.6-1.5C38.1,16.3,38.1,15.6,38,15L38,15z
	 M31,18.8c-3.9,2.7-7.3,6.1-10.1,10c1.9,1.2,4.1,2.3,6.7,3.3c1.8-4.2,4.1-8.1,6.9-11.3C33.3,20.1,32.1,19.5,31,18.8L31,18.8z
	 M76.1,18.8c3.9,2.7,7.3,6.1,10.1,10c-1.6,1-3.3,1.8-5.2,2.7c-1.9-4.3-4.3-8.1-7.2-11.3C74.5,19.7,75.3,19.2,76.1,18.8L76.1,18.8z
	 M71,21.4c2.9,3.1,5.3,6.8,7.2,11.1c-2.5,0.9-5.3,1.7-8.3,2.3c-0.8-3.6-1.7-6.9-2.8-10c-0.2-0.6-0.4-1.1-0.7-1.6
	C67.9,22.7,69.4,22.1,71,21.4L71,21.4z M37.3,21.9c-2.8,3.2-5.1,6.9-6.9,11c2.6,0.9,5.4,1.6,8.4,2.1c0.5-2.3,1.1-4.5,1.7-6.6
	c-0.7-2-1.2-4-1.6-5.9C38.4,22.4,37.8,22.2,37.3,21.9L37.3,21.9z M19.4,31.1c-3.7,6.1-5.9,13.3-5.9,20.9c0,7.7,2.1,14.8,5.9,20.9
	c2.1-1.4,4.5-2.6,7.2-3.6c-1.9-5.3-3-11.2-3-17.3c0-6.2,1-12,2.9-17.3C23.9,33.6,21.5,32.5,19.4,31.1L19.4,31.1z M87.8,31.1
	c3.7,6.1,5.8,13.3,5.8,20.9c0,7.7-2.1,14.9-5.9,21c-1.7-1.1-3.7-2.1-5.8-3c2-5.5,3.2-11.6,3.2-18c0-6.4-1.1-12.5-3.1-17.9
	C84.1,33.2,86,32.2,87.8,31.1L87.8,31.1z M42.2,33.2c-0.2,0.8-0.3,1.6-0.5,2.4c0.5,0.1,1.1,0.2,1.6,0.2C43,34.9,42.6,34,42.2,33.2
	L42.2,33.2z M79.3,35.2c1.9,5.1,2.9,10.8,2.9,16.8c0,6-1.1,11.7-3,16.8c-2.7-1-5.7-1.8-8.9-2.4c0.7-4.5,1.1-9.4,1.1-14.4
	c0-5.1-0.4-9.8-1.1-14.3C73.5,37,76.5,36.1,79.3,35.2L79.3,35.2z M29.3,35.7c-1.7,5-2.7,10.5-2.7,16.3c0,5.8,1,11.4,2.7,16.4
	c2.8-0.9,5.9-1.7,9.1-2.3c-0.8-4.4-1.1-9.2-1.1-14.1c0-4.9,0.4-9.6,1.1-14C35.1,37.4,32.1,36.6,29.3,35.7L29.3,35.7z M41.2,38.4
	c-0.7,4.2-1.1,8.8-1.1,13.6c0,4.7,0.4,9.3,1.1,13.6c3.9-0.6,8-0.9,12.3-0.9c1.7,0,3.5,0.1,5.1,0.2c-1.7-3.7-3.8-7.9-6.5-12.4
	c-2.9-5-5.4-9.4-7.4-13.7C43.6,38.7,42.4,38.6,41.2,38.4L41.2,38.4z M53.6,67.7c-4.1,0-8.1,0.3-11.8,0.8c0.7,3.4,1.6,6.6,2.7,9.4
	c0.2,0.6,0.5,1.2,0.8,1.8c2.6-0.5,5.4-0.8,8.3-0.8c3.4,0,6.7,0.4,9.9,1.2c0.2-0.4,0.3-0.7,0.5-1c-0.9-3.2-2-6.8-3.8-11.1
	C57.9,67.8,55.7,67.7,53.6,67.7L53.6,67.7z M38.9,68.9c-3,0.6-5.9,1.3-8.5,2.1c1.8,4.1,4.2,7.9,7,11c1.6-0.7,3.3-1.2,5-1.7
	c-0.2-0.5-0.4-0.9-0.6-1.4C40.6,75.9,39.7,72.6,38.9,68.9L38.9,68.9z M27.7,72.1c-2.5,1-4.8,2.1-6.8,3.3c2.8,3.9,6.2,7.2,10.2,9.9
	c1.1-0.7,2.3-1.3,3.5-1.9C31.8,80.1,29.5,76.2,27.7,72.1L27.7,72.1z M80.8,72.6c1.9,0.9,3.7,1.7,5.2,2.7c-2.7,3.9-6.2,7.2-10.1,9.9
	c-0.8-0.5-1.6-0.9-2.3-1.3C76.5,80.7,79,76.9,80.8,72.6L80.8,72.6z M53.6,81.8c-2.4,0-4.8,0.2-7.1,0.6c2.3,4.2,5,7.3,7.9,8.8
	c2.9-1.4,5.4-4.4,7.7-8.5C59.3,82.1,56.5,81.8,53.6,81.8L53.6,81.8z M43.6,83c-1.4,0.4-2.7,0.8-4,1.2c2.6,2.4,5.5,4.3,8.6,5.7
	C46.5,88,44.9,85.7,43.6,83L43.6,83z M64.9,83.6c-1.3,2.4-2.7,4.6-4.4,6.3c1.7-0.7,3.4-1.6,5-2.8c0-0.2-0.1-0.4-0.1-0.6
	C65.3,85.6,65.1,84.6,64.9,83.6L64.9,83.6z M36.7,85.5c-1,0.4-1.9,0.9-2.8,1.4c3,1.7,6.3,3,9.7,3.9C41,89.4,38.8,87.6,36.7,85.5
	L36.7,85.5z M41.5,93.3c0.3,1.2,0.8,2.7,1.5,4.1c0.7,1.2,1.5,2.4,2.7,3.4c3,0,5.7,0,7.8,0c2.1,0,4.9,0,7.8,0c1.3-1,2.2-2.2,2.8-3.5
	c0.7-1.2,1.1-2.6,1.3-4c-3.8,1.1-7.8,1.7-12,1.7C49.4,95,45.3,94.4,41.5,93.3L41.5,93.3z"/>
</svg>
